<?xml version="1.0" encoding="utf-8"?>
<!-- Generator: Adobe Illustrator 27.9.0, SVG Export Plug-In . SVG Version: 6.00 Build 0)  -->
<svg version="1.1" id="Layer_1" xmlns="http://www.w3.org/2000/svg" xmlns:xlink="http://www.w3.org/1999/xlink" x="0px" y="0px"
	 viewBox="0 0 36 36" style="enable-background:new 0 0 36 36;" xml:space="preserve">
<style type="text/css">
	.st0{clip-path:url(#SVGID_00000168112327619691730540000001792178839117755028_);}
	.st1{fill:none;stroke:#000000;stroke-width:2;stroke-linecap:round;stroke-linejoin:round;}
</style>
<g>
	<g>
		<defs>
			<rect id="SVGID_1_" width="36" height="36"/>
		</defs>
		<clipPath id="SVGID_00000068644545473441589920000008498325956568365472_">
			<use xlink:href="#SVGID_1_"  style="overflow:visible;"/>
		</clipPath>
		<g id="Frame" style="clip-path:url(#SVGID_00000068644545473441589920000008498325956568365472_);">
			<path id="Vector" class="st1" d="M4.5,4.5v27h27"/>
			<path id="Vector_2" class="st1" d="M10.5,13.5c0,0.8,0.3,1.6,0.9,2.1c0.6,0.6,1.3,0.9,2.1,0.9s1.6-0.3,2.1-0.9
				c0.6-0.6,0.9-1.3,0.9-2.1s-0.3-1.6-0.9-2.1c-0.6-0.6-1.3-0.9-2.1-0.9s-1.6,0.3-2.1,0.9S10.5,12.7,10.5,13.5z"/>
			<path id="Vector_3" class="st1" d="M25.5,10.5c0,0.8,0.3,1.6,0.9,2.1c0.6,0.6,1.3,0.9,2.1,0.9s1.6-0.3,2.1-0.9
				c0.6-0.6,0.9-1.3,0.9-2.1s-0.3-1.6-0.9-2.1c-0.6-0.6-1.3-0.9-2.1-0.9s-1.6,0.3-2.1,0.9C25.8,8.9,25.5,9.7,25.5,10.5z"/>
			<path id="Vector_4" class="st1" d="M18,22.5c0,0.8,0.3,1.6,0.9,2.1c0.6,0.6,1.3,0.9,2.1,0.9s1.6-0.3,2.1-0.9
				c0.6-0.6,0.9-1.3,0.9-2.1s-0.3-1.6-0.9-2.1c-0.6-0.6-1.3-0.9-2.1-0.9s-1.6,0.3-2.1,0.9C18.3,20.9,18,21.7,18,22.5z"/>
			<path id="Vector_5" class="st1" d="M15.2,15.9l3.5,4.3"/>
			<path id="Vector_6" class="st1" d="M22.6,20l4.3-6.9"/>
		</g>
	</g>
</g>
</svg>
